<svg xmlns="http://www.w3.org/2000/svg" width="36" height="36" viewBox="0 0 36 36">
  <g transform="matrix(0.897546,0,0,0.897546,1.84416,1.84416)">
    <path d="M27.515,19.247c0.048,-0.399 0.08,-0.815 0.08,-1.247c0,-0.432 -0.032,-0.848 -0.096,-1.247l2.703,-2.111c0.24,-0.192 0.304,-0.544 0.16,-0.816l-2.559,-4.43c-0.16,-0.287 -0.496,-0.383 -0.784,-0.287l-3.182,1.279c-0.672,-0.512 -1.375,-0.928 -2.159,-1.247l-0.48,-3.391c-0.048,-0.32 -0.319,-0.543 -0.639,-0.543l-5.118,0c-0.32,0 -0.575,0.223 -0.623,0.543l-0.48,3.391c-0.784,0.319 -1.503,0.751 -2.159,1.247l-3.182,-1.279c-0.288,-0.112 -0.624,0 -0.784,0.287l-2.559,4.43c-0.16,0.288 -0.096,0.624 0.16,0.816l2.703,2.111c-0.064,0.399 -0.112,0.831 -0.112,1.247c0,0.416 0.032,0.848 0.096,1.247l-2.703,2.111c-0.24,0.192 -0.304,0.544 -0.16,0.816l2.559,4.43c0.16,0.287 0.496,0.383 0.784,0.287l3.182,-1.279c0.672,0.512 1.375,0.928 2.159,1.247l0.48,3.391c0.064,0.32 0.319,0.543 0.639,0.543l5.118,0c0.32,0 0.591,-0.223 0.623,-0.543l0.48,-3.391c0.784,-0.319 1.503,-0.751 2.159,-1.247l3.182,1.279c0.288,0.112 0.624,0 0.784,-0.287l2.559,-4.43c0.16,-0.288 0.096,-0.624 -0.16,-0.816l-2.671,-2.111Zm-9.515,3.551c-2.639,0 -4.798,-2.159 -4.798,-4.798c0,-2.639 2.159,-4.798 4.798,-4.798c2.639,0 4.798,2.159 4.798,4.798c0,2.639 -2.159,4.798 -4.798,4.798Z" />
  </g>
</svg>