<?xml version="1.0" encoding="UTF-8" standalone="no"?>
<svg
   xmlns:dc="http://purl.org/dc/elements/1.1/"
   xmlns:cc="http://creativecommons.org/ns#"
   xmlns:rdf="http://www.w3.org/1999/02/22-rdf-syntax-ns#"
   xmlns:svg="http://www.w3.org/2000/svg"
   xmlns="http://www.w3.org/2000/svg"
   xmlns:sodipodi="http://sodipodi.sourceforge.net/DTD/sodipodi-0.dtd"
   xmlns:inkscape="http://www.inkscape.org/namespaces/inkscape"
   width="24"
   height="24"
   viewBox="0 0 36 36"
   version="1.1"
   id="svg4"
   sodipodi:docname="ic_volume_off_24px.svg"
   inkscape:version="0.92.3 (2405546, 2018-03-11)">
  <metadata
     id="metadata10">
    <rdf:RDF>
      <cc:Work
         rdf:about="">
        <dc:format>image/svg+xml</dc:format>
        <dc:type
           rdf:resource="http://purl.org/dc/dcmitype/StillImage" />
        <dc:title></dc:title>
      </cc:Work>
    </rdf:RDF>
  </metadata>
  <defs
     id="defs8" />
  <sodipodi:namedview
     pagecolor="#ffffff"
     bordercolor="#666666"
     borderopacity="1"
     objecttolerance="10"
     gridtolerance="10"
     guidetolerance="10"
     inkscape:pageopacity="0"
     inkscape:pageshadow="2"
     inkscape:window-width="1379"
     inkscape:window-height="881"
     id="namedview6"
     showgrid="false"
     scale-x="1.5"
     inkscape:zoom="9.8333333"
     inkscape:cx="12"
     inkscape:cy="12"
     inkscape:window-x="0"
     inkscape:window-y="30"
     inkscape:window-maximized="0"
     inkscape:current-layer="svg4" />
  <path
     d="m 22.5,18 c 0,-1.77 -1.02,-3.29 -2.5,-4.03 v 2.21 l 2.45,2.45 C 22.48,18.43 22.5,18.22 22.5,18 Z m 2.5,0 c 0,0.94 -0.2,1.82 -0.54,2.64 l 1.51,1.51 C 26.63,20.91 27,19.5 27,18 27,13.72 24.01,10.14 20,9.23 v 2.06 c 2.89,0.86 5,3.54 5,6.71 z M 10.27,9 9,10.27 13.73,15 H 9 v 6 h 4 l 5,5 v -6.73 l 4.25,4.25 C 21.58,24.04 20.83,24.45 20,24.7 v 2.06 c 1.38,-0.31 2.63,-0.95 3.69,-1.81 L 25.73,27 27,25.73 l -9,-9 z M 18,10 15.91,12.09 18,14.18 Z"
     id="path2"
     inkscape:connector-curvature="0" />
</svg>
