<svg xmlns="http://www.w3.org/2000/svg" width="36" height="36" viewBox="0 0 36 36">
  <path d="m 22.5,18 c 0,-1.77 -1.02,-3.29 -2.5,-4.03 v 2.21 l 2.45,2.45 C 22.48,18.43 22.5,18.22 22.5,18 Z m 2.5,0 c 0,0.94 -0.2,1.82 -0.54,2.64 l 1.51,1.51 C 26.63,20.91 27,19.5 27,18 27,13.72 24.01,10.14 20,9.23 v 2.06 c 2.89,0.86 5,3.54 5,6.71 z M 10.27,9 9,10.27 13.73,15 H 9 v 6 h 4 l 5,5 v -6.73 l 4.25,4.25 C 21.58,24.04 20.83,24.45 20,24.7 v 2.06 c 1.38,-0.31 2.63,-0.95 3.69,-1.81 L 25.73,27 27,25.73 l -9,-9 z M 18,10 15.91,12.09 18,14.18 Z" />
</svg>
